<svg width="384" height="384" viewBox="0 0 384 384" fill="none" xmlns="http://www.w3.org/2000/svg">
<g clip-path="url(#clip0_21_2407)">
<path d="M114.322 253.617L122.15 295.878C122.15 296.466 121.917 297.029 121.502 297.444C121.087 297.86 120.523 298.093 119.936 298.093H90.0416C89.4543 298.093 88.8911 297.86 88.4758 297.444C88.0605 297.029 87.8272 296.466 87.8272 295.878V247.162C87.8272 246.281 87.4772 245.436 86.8543 244.813C86.2314 244.19 85.3865 243.84 84.5056 243.84H70.112C68.2774 243.84 62.185 250.352 60.0232 253.66L67.8976 298.093V312.486C67.8976 315.544 70.3761 318.022 73.4336 318.022H122.15L131.823 325.021C135.049 322.649 142.08 316.651 142.08 313.594V247.162C142.08 246.281 141.73 245.436 141.107 244.813C140.484 244.19 139.639 243.84 138.758 243.84H124.365C121.925 243.84 116.759 250.425 114.322 253.617V253.617Z" fill="#08D4F8"/>
<path d="M113.293 256.019V304.736C113.293 305.323 113.06 305.887 112.644 306.302C112.229 306.717 111.666 306.95 111.078 306.95H81.184C80.5967 306.95 80.0335 306.717 79.6182 306.302C79.2029 305.887 78.9696 305.323 78.9696 304.736V256.019C78.9696 255.138 78.6197 254.293 77.9968 253.671C77.3738 253.048 76.529 252.698 75.648 252.698H62.3616C61.4807 252.698 60.6358 253.048 60.0129 253.671C59.39 254.293 59.04 255.138 59.04 256.019V321.344C59.04 324.402 61.5185 326.88 64.576 326.88H127.686C130.744 326.88 133.222 324.402 133.222 321.344V256.019C133.222 255.138 132.872 254.293 132.25 253.671C131.627 253.048 130.782 252.698 129.901 252.698H116.614C115.733 252.698 114.889 253.048 114.266 253.671C113.643 254.293 113.293 255.138 113.293 256.019Z" fill="#142664"/>
<path d="M133.615 253.733C133.615 253.733 134.489 252.99 135.656 251.965C136.244 251.402 136.949 250.781 137.613 250.122C137.983 249.745 138.378 249.336 138.705 248.922C140.074 247.372 141.174 246.071 141.174 246.071C141.442 245.821 141.325 245.338 141.014 245.008C140.662 244.642 140.191 244.604 139.948 244.822C139.948 244.822 138.637 245.937 137.125 247.307C136.714 247.647 136.344 248.024 135.95 248.433C135.286 249.092 134.665 249.787 134.119 250.388C133.077 251.524 132.347 252.448 132.347 252.448C132.078 252.698 132.196 253.181 132.506 253.51C132.901 253.914 133.413 253.988 133.615 253.733V253.733ZM81.0335 306.322C81.0335 306.322 81.9071 305.579 83.0746 304.554C83.6626 303.991 84.3679 303.37 85.0316 302.711C85.4014 302.334 85.7961 301.925 86.1233 301.511C87.4924 299.96 88.5924 298.659 88.5924 298.659C88.8609 298.41 88.7435 297.926 88.4329 297.597C88.0803 297.23 87.6097 297.193 87.3661 297.411C87.3661 297.411 86.0558 298.526 84.5439 299.896C84.1326 300.236 83.7628 300.613 83.368 301.022C82.7048 301.68 82.0831 302.376 81.5373 302.976C80.496 304.113 79.7652 305.037 79.7652 305.037C79.4962 305.286 79.6141 305.77 79.9247 306.099C80.3194 306.503 80.832 306.577 81.0335 306.322V306.322ZM79.2542 253.733C79.2542 253.733 80.1278 252.99 81.2954 251.965C81.8833 251.402 82.5886 250.781 83.2523 250.122C83.6216 249.745 84.0169 249.336 84.344 248.922C85.7131 247.372 86.8131 246.071 86.8131 246.071C87.0816 245.821 86.9642 245.338 86.6537 245.008C86.301 244.642 85.8305 244.604 85.5869 244.822C85.5869 244.822 84.2765 245.937 82.7646 247.307C82.3533 247.647 81.9835 248.024 81.5888 248.433C80.9256 249.092 80.3039 249.787 79.758 250.388C78.7167 251.524 77.9859 252.448 77.9859 252.448C77.7169 252.698 77.8348 253.181 78.1454 253.51C78.5407 253.914 79.0527 253.988 79.2542 253.733V253.733Z" fill="#142664"/>
</g>
<g clip-path="url(#clip1_21_2407)">
<path d="M50.4587 261.458V253.467C50.4587 246.85 45.0892 241.44 38.4293 241.44C31.8111 241.44 26.3999 246.809 26.3999 253.467V271.779C26.3999 284.098 33.6009 300.12 53.6638 300.12H57.9927V295.334H53.6638C37.0557 295.334 31.1867 281.975 31.1867 271.779V253.467C31.1867 249.472 34.4334 246.226 38.4293 246.226C42.4252 246.226 45.6719 249.472 45.6719 253.467V261.458C45.6719 268.491 51.3744 274.193 58.4089 274.193C59.7409 274.193 60.8231 273.111 60.8231 271.779C60.8231 270.447 59.7409 269.365 58.4089 269.365C53.9968 269.407 50.4587 265.828 50.4587 261.458V261.458Z" fill="#08D4F8"/>
<path d="M49.1683 334.08C53.414 333.997 57.2434 332.207 60.0322 329.419C60.0738 329.377 60.0738 329.336 60.1155 329.336L64.9439 324.508C65.8596 323.592 65.8596 322.053 64.9439 321.137C64.0281 320.221 62.488 320.221 61.5723 321.137L56.6606 326.048C56.619 326.089 56.5774 326.131 56.5774 326.173C54.5862 328.161 51.8988 329.295 49.085 329.336C43.1744 329.252 38.3876 324.425 38.3876 318.473V307.695C38.3876 298.539 45.8384 291.089 54.9957 291.089H58.0759C59.4078 291.089 60.4901 290.007 60.4901 288.676C60.4901 287.344 59.4078 286.262 58.0759 286.262H54.9957C43.1744 286.262 33.6008 295.834 33.6008 307.653V318.432C33.6008 326.88 40.344 333.789 48.7104 334.038H49.1683V334.08Z" fill="#3376BD"/>
<path d="M61.1978 292.13L56.6191 291.339V286.012L61.1978 285.221V292.13Z" fill="#1B1B1B"/>
<path d="M61.6973 292.754C61.5308 292.921 61.281 292.962 61.0313 292.921L56.4526 292.13C56.078 292.047 55.7866 291.714 55.7866 291.339V286.012C55.7866 285.638 56.078 285.305 56.4526 285.221L61.0313 284.431C61.281 284.389 61.4891 284.472 61.6973 284.597C61.8638 284.764 61.9886 284.972 61.9886 285.221V292.13C61.9886 292.38 61.8638 292.588 61.6973 292.754V292.754ZM60.4069 286.137L57.41 286.678V290.673L60.4069 291.173V286.137Z" fill="#142664"/>
<path d="M61.1978 275.275L56.6191 274.484V269.157L61.1978 268.366V275.275Z" fill="#1B1B1B"/>
<path d="M61.6973 275.899C61.5308 276.066 61.281 276.107 61.0313 276.066L56.4526 275.275C56.078 275.192 55.7866 274.859 55.7866 274.484V269.157C55.7866 268.783 56.078 268.45 56.4526 268.366L61.0313 267.576C61.281 267.534 61.4891 267.617 61.6973 267.742C61.8638 267.909 61.9886 268.117 61.9886 268.366V275.275C61.9886 275.525 61.8638 275.733 61.6973 275.899ZM60.4069 269.24L57.41 269.781V273.777L60.4069 274.276V269.24Z" fill="#142664"/>
<path d="M61.1978 301.202L56.6191 300.412V295.085L61.1978 294.294V301.202Z" fill="#1B1B1B"/>
<path d="M61.6973 301.827C61.5308 301.993 61.281 302.035 61.0313 301.993L56.4526 301.202C56.078 301.119 55.7866 300.786 55.7866 300.412V295.085C55.7866 294.71 56.078 294.377 56.4526 294.294L61.0313 293.503C61.281 293.462 61.4891 293.545 61.6973 293.67C61.8638 293.836 61.9886 294.044 61.9886 294.294V301.202C61.9886 301.452 61.8638 301.66 61.6973 301.827ZM60.4069 295.168L57.41 295.709V299.704L60.4069 300.204V295.168Z" fill="#142664"/>
<path d="M67.6496 323.301L63.8202 326.006L60.074 322.261L62.7795 318.432L67.6496 323.301Z" fill="#1B1B1B"/>
<path d="M68.1489 323.967L64.3195 326.672C63.9865 326.88 63.5703 326.839 63.2789 326.589L59.5327 322.843C59.2414 322.552 59.2414 322.136 59.4495 321.803L62.1551 317.974C62.2799 317.766 62.4881 317.641 62.7378 317.641C62.9875 317.641 63.1957 317.724 63.3622 317.891L68.2322 322.76C68.3987 322.927 68.4819 323.176 68.4819 323.384C68.4819 323.634 68.3571 323.842 68.1489 323.967ZM62.8627 319.639L61.1145 322.136L63.9033 324.924L66.4007 323.176L62.8627 319.639Z" fill="#142664"/>
<path d="M101.074 312.606C101.074 316.06 99.7003 319.347 97.286 321.803C94.8718 324.217 91.5419 325.59 88.0871 325.59H73.3937C69.9389 325.59 66.6506 324.217 64.1948 321.803C61.7806 319.347 60.407 316.06 60.407 312.606V266.327C60.407 265.869 60.7816 265.536 61.1978 265.536H100.241C100.699 265.536 101.032 265.911 101.032 266.327V312.606H101.074Z" fill="#142664"/>
<path d="M62.3215 311.731H98.0351V310.15H62.3215V311.731Z" fill="#1B1B1B"/>
<path d="M65.1522 304.448C65.9108 304.448 66.5258 305.063 66.5258 305.822C66.5258 306.58 65.9108 307.195 65.1522 307.195C64.3935 307.195 63.7786 306.58 63.7786 305.822C63.7786 305.063 64.3935 304.448 65.1522 304.448Z" fill="#1B1B1B"/>
<path d="M65.1522 299.746C65.9108 299.746 66.5258 300.361 66.5258 301.119C66.5258 301.878 65.9108 302.492 65.1522 302.492C64.3935 302.492 63.7786 301.878 63.7786 301.119C63.7786 300.361 64.3935 299.746 65.1522 299.746Z" fill="#1B1B1B"/>
</g>
<g clip-path="url(#clip2_21_2407)">
<path d="M201.83 211.68H152.006C148.949 211.68 143.262 218.311 140.965 221.622L147.578 231.61V282.541C147.578 283.422 147.928 284.267 148.55 284.89C149.173 285.512 150.018 285.862 150.899 285.862L157.505 293.905C159.809 292.586 167.507 285.483 167.507 283.648V269.565C167.507 268.978 167.74 268.414 168.156 267.999C168.571 267.584 169.134 267.351 169.722 267.351L211.631 274.2C214.501 272.267 221.76 265.979 221.76 262.922V217.216C221.76 214.158 219.282 211.68 216.224 211.68H201.83ZM199.616 247.421H169.722C169.134 247.421 168.571 247.188 168.156 246.772C167.74 246.357 167.507 245.794 167.507 245.207V233.824C167.507 233.237 167.74 232.673 168.156 232.258C168.571 231.843 169.134 231.61 169.722 231.61H199.616C200.203 231.61 200.767 231.843 201.182 232.258C201.597 232.673 201.83 233.237 201.83 233.824V245.207C201.83 245.497 201.773 245.785 201.662 246.054C201.551 246.323 201.387 246.567 201.182 246.772C200.976 246.978 200.732 247.141 200.463 247.252C200.195 247.364 199.907 247.421 199.616 247.421Z" fill="#08D4F8"/>
<path d="M192.973 220.538H144.256C141.198 220.538 138.72 223.016 138.72 226.074V291.398C138.72 292.279 139.07 293.124 139.693 293.747C140.316 294.37 141.161 294.72 142.042 294.72H155.328C156.209 294.72 157.054 294.37 157.677 293.747C158.3 293.124 158.65 292.279 158.65 291.398V278.423C158.65 277.835 158.883 277.272 159.298 276.857C159.713 276.441 160.277 276.208 160.864 276.208H207.366C210.424 276.208 212.902 273.73 212.902 270.672V226.074C212.902 223.016 210.424 220.538 207.366 220.538H192.973ZM190.758 256.279H160.864C160.277 256.279 159.713 256.045 159.298 255.63C158.883 255.215 158.65 254.651 158.65 254.064V242.682C158.65 242.094 158.883 241.531 159.298 241.116C159.713 240.7 160.277 240.467 160.864 240.467H190.758C191.346 240.467 191.909 240.7 192.324 241.116C192.739 241.531 192.973 242.094 192.973 242.682V254.064C192.973 254.651 192.739 255.215 192.324 255.63C191.909 256.045 191.346 256.279 190.758 256.279Z" fill="#142664"/>
<path d="M160.701 255.413C160.701 255.413 161.574 254.669 162.742 253.645C163.33 253.082 164.035 252.46 164.699 251.802C165.069 251.425 165.463 251.016 165.791 250.601C167.16 249.051 168.26 247.75 168.26 247.75C168.528 247.5 168.411 247.017 168.1 246.687C167.748 246.321 167.277 246.283 167.033 246.501C167.033 246.501 165.723 247.616 164.211 248.987C163.8 249.326 163.43 249.703 163.035 250.113C162.372 250.771 161.75 251.467 161.205 252.067C160.163 253.203 159.432 254.127 159.432 254.127C159.163 254.377 159.281 254.86 159.592 255.19C159.987 255.593 160.499 255.667 160.701 255.413V255.413ZM212.885 222.329C212.885 222.329 213.758 221.585 214.926 220.56C215.514 219.997 216.219 219.376 216.883 218.717C217.253 218.34 217.647 217.931 217.975 217.517C219.344 215.967 220.444 214.666 220.444 214.666C220.712 214.416 220.595 213.933 220.284 213.603C219.932 213.237 219.461 213.199 219.217 213.417C219.217 213.417 217.907 214.532 216.395 215.902C215.984 216.242 215.614 216.619 215.219 217.028C214.556 217.687 213.934 218.382 213.389 218.983C212.347 220.119 211.616 221.043 211.616 221.043C211.347 221.293 211.465 221.776 211.776 222.105C212.171 222.509 212.683 222.583 212.885 222.329V222.329Z" fill="#142664"/>
</g>
<g clip-path="url(#clip3_21_2407)">
<path d="M71.8837 357.71V336.038C71.8837 335.646 71.7278 335.27 71.4503 334.993C71.1728 334.716 70.7964 334.56 70.404 334.56H63.9917C62.8017 334.579 60.0526 337.715 59.387 339.039L63.0052 358.695V365.098C63.0052 366.458 64.1093 367.56 65.4715 367.56H71.8837L89.6545 371.113C90.6464 370.416 94.08 367.392 94.08 366.575V360.172C94.08 359.78 93.9241 359.405 93.6466 359.127C93.369 358.85 92.9927 358.695 92.6002 358.695H72.8702C72.6086 358.695 72.3576 358.591 72.1726 358.406C71.9876 358.221 71.8837 357.971 71.8837 357.71Z" fill="#08D4F8"/>
<path d="M67.9185 361.669V339.997C67.9185 339.605 67.7626 339.23 67.4851 338.952C67.2076 338.675 66.8312 338.52 66.4388 338.52H60.5198C60.1273 338.52 59.751 338.675 59.4734 338.952C59.1959 339.23 59.04 339.605 59.04 339.997V369.057C59.04 370.418 60.1442 371.52 61.5063 371.52H88.6351C89.0275 371.52 89.4039 371.364 89.6814 371.087C89.9589 370.81 90.1148 370.434 90.1148 370.042V364.132C90.1148 363.74 89.9589 363.364 89.6814 363.087C89.4039 362.81 89.0275 362.654 88.6351 362.654H68.905C68.6434 362.654 68.3925 362.551 68.2075 362.366C68.0225 362.181 67.9185 361.93 67.9185 361.669Z" fill="#142664"/>
<path d="M68.8128 362.406C68.8128 362.406 69.202 362.075 69.7221 361.619C69.984 361.369 70.2982 361.092 70.5939 360.799C70.7584 360.632 70.9345 360.45 71.0802 360.265C71.6902 359.576 72.1802 358.997 72.1802 358.997C72.2998 358.886 72.2475 358.671 72.1092 358.524C71.9521 358.361 71.7424 358.345 71.6339 358.442C71.6339 358.442 71.0502 358.938 70.3766 359.547C70.1934 359.698 70.0286 359.866 69.8528 360.048C69.5573 360.341 69.2804 360.65 69.0372 360.917C68.5733 361.423 68.2478 361.834 68.2478 361.834C68.1279 361.945 68.1804 362.16 68.3188 362.307C68.4946 362.486 68.723 362.519 68.8128 362.406V362.406ZM68.0971 338.938C68.0971 338.938 68.4862 338.607 69.0064 338.151C69.2683 337.901 69.5825 337.624 69.8782 337.331C70.0427 337.164 70.2188 336.982 70.3645 336.797C70.9744 336.108 71.4645 335.529 71.4645 335.529C71.5841 335.418 71.5318 335.203 71.3935 335.056C71.2364 334.893 71.0267 334.877 70.9182 334.974C70.9182 334.974 70.3345 335.47 69.6609 336.079C69.4777 336.23 69.3129 336.398 69.1371 336.58C68.8416 336.873 68.5647 337.182 68.3215 337.449C67.8576 337.955 67.5321 338.366 67.5321 338.366C67.4122 338.477 67.4647 338.692 67.6031 338.839C67.7789 339.018 68.0073 339.051 68.0971 338.938ZM90.2992 363.199C90.2992 363.199 90.6884 362.868 91.2086 362.412C91.4705 362.161 91.7847 361.885 92.0804 361.592C92.2449 361.424 92.421 361.242 92.5667 361.058C93.1766 360.368 93.6667 359.79 93.6667 359.79C93.7863 359.679 93.734 359.464 93.5956 359.317C93.4385 359.154 93.2289 359.137 93.1204 359.234C93.1204 359.234 92.5366 359.73 91.8631 360.34C91.6799 360.491 91.5151 360.659 91.3393 360.841C91.0438 361.134 90.7668 361.443 90.5237 361.71C90.0598 362.216 89.7342 362.627 89.7342 362.627C89.6144 362.738 89.6669 362.953 89.8053 363.099C89.9811 363.279 90.2095 363.312 90.2992 363.199V363.199Z" fill="#142664"/>
</g>
<g clip-path="url(#clip4_21_2407)">
<path d="M140.524 356.75V335.078C140.524 334.686 140.368 334.31 140.09 334.033C139.813 333.756 139.436 333.6 139.044 333.6H132.632C131.442 333.619 128.692 336.755 128.027 338.078L131.645 357.735V364.138C131.645 365.498 132.749 366.6 134.111 366.6H140.524L158.294 370.153C159.286 369.455 162.72 366.431 162.72 365.615V359.212C162.72 358.82 162.564 358.445 162.286 358.167C162.009 357.89 161.633 357.735 161.24 357.735H141.51C141.248 357.735 140.998 357.631 140.813 357.446C140.628 357.261 140.524 357.011 140.524 356.75Z" fill="#08D4F8"/>
<path d="M136.558 360.709V339.037C136.558 338.645 136.403 338.269 136.125 337.992C135.848 337.715 135.471 337.56 135.079 337.56H129.16C128.767 337.56 128.391 337.715 128.113 337.992C127.836 338.269 127.68 338.645 127.68 339.037V368.097C127.68 369.457 128.784 370.56 130.146 370.56H157.275C157.667 370.56 158.044 370.404 158.321 370.127C158.599 369.85 158.755 369.474 158.755 369.082V363.172C158.755 362.78 158.599 362.404 158.321 362.127C158.044 361.85 157.667 361.694 157.275 361.694H137.545C137.283 361.694 137.032 361.59 136.847 361.406C136.662 361.221 136.558 360.97 136.558 360.709Z" fill="#142664"/>
<path d="M137.453 361.446C137.453 361.446 137.842 361.115 138.362 360.659C138.624 360.409 138.938 360.132 139.234 359.839C139.398 359.672 139.574 359.49 139.72 359.305C140.33 358.616 140.82 358.037 140.82 358.037C140.94 357.926 140.887 357.711 140.749 357.564C140.592 357.401 140.382 357.384 140.274 357.481C140.274 357.481 139.69 357.977 139.017 358.587C138.833 358.738 138.669 358.906 138.493 359.088C138.197 359.381 137.92 359.69 137.677 359.957C137.213 360.463 136.888 360.874 136.888 360.874C136.768 360.985 136.82 361.2 136.959 361.346C137.135 361.526 137.363 361.559 137.453 361.446V361.446ZM136.737 337.978C136.737 337.978 137.126 337.647 137.646 337.191C137.908 336.941 138.222 336.664 138.518 336.371C138.683 336.204 138.859 336.022 139.004 335.837C139.614 335.148 140.104 334.569 140.104 334.569C140.224 334.458 140.172 334.243 140.033 334.096C139.876 333.933 139.667 333.916 139.558 334.013C139.558 334.013 138.974 334.509 138.301 335.119C138.118 335.27 137.953 335.438 137.777 335.62C137.482 335.913 137.205 336.222 136.961 336.489C136.497 336.995 136.172 337.406 136.172 337.406C136.052 337.517 136.105 337.732 136.243 337.878C136.419 338.058 136.647 338.091 136.737 337.978ZM158.939 362.238C158.939 362.238 159.328 361.908 159.848 361.452C160.11 361.201 160.425 360.925 160.72 360.632C160.885 360.464 161.061 360.282 161.207 360.098C161.817 359.408 162.307 358.83 162.307 358.83C162.426 358.718 162.374 358.503 162.236 358.357C162.078 358.194 161.869 358.177 161.76 358.274C161.76 358.274 161.177 358.77 160.503 359.38C160.32 359.531 160.155 359.699 159.979 359.881C159.684 360.173 159.407 360.483 159.164 360.75C158.7 361.256 158.374 361.667 158.374 361.667C158.254 361.778 158.307 361.993 158.445 362.139C158.621 362.319 158.849 362.352 158.939 362.238V362.238Z" fill="#142664"/>
</g>
<g clip-path="url(#clip5_21_2407)">
<path d="M123.8 334.56H117.412C116.457 334.56 114.018 337.333 112.795 338.962L114.08 354.159C114.052 354.375 113.953 354.576 113.799 354.73L109.756 358.771C109.664 358.863 109.555 358.935 109.436 358.985C109.316 359.034 109.188 359.06 109.058 359.06C108.929 359.06 108.8 359.034 108.681 358.985C108.561 358.935 108.452 358.863 108.36 358.771L104.319 354.732C104.165 354.578 104.066 354.377 104.038 354.161L101.671 335.85C101.625 335.493 101.451 335.166 101.181 334.928C100.911 334.691 100.563 334.56 100.204 334.56H94.0626C93.0827 334.549 90.1579 337.287 89.022 339.119L95.6398 357.877C95.7095 358.417 95.9563 358.919 96.3415 359.304L104.193 367.155C104.33 367.292 104.493 367.401 104.673 367.475C104.852 367.55 105.045 367.588 105.239 367.588H112.581C112.778 367.588 112.972 367.549 113.153 367.473C113.335 367.397 113.499 367.286 113.637 367.146L121.791 359.301C122.168 358.917 122.409 358.421 122.478 357.888L125.268 336.228C125.382 335.343 124.692 334.56 123.8 334.56V334.56Z" fill="#08D4F8"/>
<path d="M121.492 338.962C121.492 338.962 121.881 338.631 122.401 338.175C122.663 337.924 122.977 337.648 123.273 337.354C123.438 337.187 123.614 337.004 123.759 336.82C124.369 336.13 124.859 335.55 124.859 335.55C124.979 335.439 124.927 335.224 124.788 335.077C124.631 334.914 124.422 334.898 124.313 334.995C124.313 334.995 123.729 335.491 123.056 336.101C122.873 336.252 122.708 336.42 122.532 336.602C122.237 336.895 121.96 337.205 121.716 337.472C121.252 337.978 120.927 338.39 120.927 338.39C120.807 338.501 120.86 338.716 120.998 338.863C121.174 339.042 121.402 339.076 121.492 338.962V338.962ZM97.8241 338.962C97.8241 338.962 98.2133 338.631 98.7335 338.175C98.9954 337.924 99.3096 337.648 99.6053 337.354C99.77 337.187 99.9459 337.004 100.092 336.82C100.702 336.13 101.192 335.55 101.192 335.55C101.311 335.439 101.259 335.224 101.121 335.077C100.963 334.914 100.754 334.898 100.645 334.995C100.645 334.995 100.062 335.491 99.388 336.101C99.2048 336.252 99.04 336.42 98.8642 336.602C98.5687 336.895 98.2917 337.205 98.0486 337.472C97.5847 337.978 97.2591 338.39 97.2591 338.39C97.1392 338.501 97.1918 338.716 97.3301 338.863C97.506 339.042 97.7344 339.076 97.8241 338.962V338.962Z" fill="#142664"/>
<path d="M119.771 338.492H113.876C113.517 338.492 113.169 338.623 112.899 338.861C112.629 339.098 112.455 339.426 112.409 339.782L110.051 358.091C110.023 358.307 109.924 358.508 109.77 358.662L105.727 362.703C105.635 362.795 105.526 362.868 105.407 362.917C105.287 362.967 105.159 362.992 105.029 362.992C104.899 362.992 104.771 362.967 104.651 362.917C104.532 362.868 104.423 362.795 104.331 362.703L100.29 358.664C100.136 358.51 100.037 358.309 100.009 358.093L97.6425 339.782C97.5964 339.425 97.422 339.098 97.1519 338.861C96.8818 338.623 96.5345 338.493 96.1748 338.493H90.2804C89.3878 338.493 88.6985 339.276 88.8127 340.161L91.6109 361.81C91.6807 362.35 91.9274 362.851 92.3126 363.236L100.164 371.087C100.301 371.224 100.464 371.333 100.644 371.408C100.824 371.482 101.016 371.521 101.211 371.521H108.99C109.186 371.521 109.381 371.481 109.562 371.406C109.743 371.33 109.908 371.218 110.045 371.078L117.762 363.234C118.139 362.85 118.38 362.354 118.449 361.82L121.239 340.16C121.353 339.276 120.663 338.492 119.771 338.492V338.492Z" fill="#142664"/>
</g>
<g clip-path="url(#clip6_21_2407)">
<path d="M167.75 321.233C167.75 317.929 165.136 315.261 161.9 315.261H156.549C154.931 315.261 153.562 314.245 152.94 312.847C152.317 311.322 152.691 309.671 153.811 308.527L180.32 281.464C181.813 279.939 184.302 279.939 185.92 281.464L212.429 308.527C213.549 309.671 213.922 311.449 213.3 312.847C212.678 314.372 211.309 315.261 209.691 315.261H204.339C201.103 315.261 198.49 317.929 198.49 321.233V332.795C198.49 334.955 196.747 336.861 194.507 336.861L171.857 336.861C169.741 336.861 167.874 335.082 167.874 332.795L167.75 321.233ZM171.359 340.927C170.363 340.927 169.492 341.308 168.745 342.071C167.999 342.833 167.625 343.722 167.625 344.739V357.699C167.625 358.715 167.999 359.605 168.745 360.367C169.492 361.129 170.363 361.511 171.359 361.511L194.507 361.511C195.503 361.511 196.374 361.129 197.121 360.367C197.868 359.605 198.241 358.715 198.241 357.699L198.241 344.739C198.241 343.722 197.868 342.833 197.121 342.071C196.374 341.308 195.503 340.927 194.507 340.927L171.359 340.927V340.927ZM170.363 371.04L195.627 371.04C197.121 371.04 198.241 369.897 198.241 368.372C198.241 366.847 197.121 365.704 195.627 365.704L170.363 365.704C168.87 365.704 167.75 366.847 167.75 368.372C167.75 369.897 168.87 371.04 170.363 371.04V371.04Z" fill="#142664"/>
<path d="M181.191 297.727C182.186 296.711 183.804 296.711 184.924 297.727L194.632 307.638C195.379 308.4 195.627 309.544 195.254 310.56C194.881 311.576 193.885 312.212 192.889 312.212H173.599C172.604 312.212 171.608 311.576 171.235 310.56C170.861 309.544 171.11 308.4 171.857 307.638C174.719 304.334 178.826 300.141 181.191 297.727V297.727Z" fill="#08D4F8"/>
</g>
<g clip-path="url(#clip7_21_2407)">
<path d="M167.751 124.081C167.694 123.555 167.848 123.005 168.118 122.55C168.118 122.55 171.671 116.946 178.41 115.152C179.652 114.805 180.914 115.627 181.262 116.868C181.61 118.109 180.787 119.369 179.544 119.717C178.712 119.914 177.997 120.204 177.387 120.482C176.673 120.773 176.436 121.544 176.621 122.27C176.806 122.995 177.59 123.337 178.328 123.257C181.811 122.509 185.194 121.357 188.409 119.824C188.819 119.673 189.346 119.616 189.802 119.886C190.258 120.156 190.515 120.554 190.56 120.976C190.529 123.642 190.011 128.704 186.094 134.88C185.906 135.112 185.707 135.241 185.507 135.369C184.088 136.055 178.133 138.19 169.063 136.187L167.751 124.081Z" fill="#3376BD"/>
<path d="M159.897 202.094C160.691 212.533 149.815 208.863 148.118 207.169C146.739 205.792 145.891 203.992 145.573 202.086C145.255 200.179 145.255 200.709 144.937 199.438C143.664 194.249 141.119 183.765 139.21 176.034C138.892 174.658 137.726 173.599 136.241 173.281L115.987 169.574C103.474 167.351 92.339 167.351 90.1121 177.093L89.6879 179.423C89.1577 182.494 88.5214 185.671 87.7791 188.954C84.8099 202.615 80.25 218.182 73.2511 233.75C71.4483 238.197 66.2522 240.421 61.7984 238.515C57.3445 236.715 55.1176 231.526 57.0264 227.078C62.5407 212.358 65.722 197.956 67.6308 185.248C70.1758 168.41 72.1907 154.748 72.0846 147.759H121.607L145.149 153.478C148.436 154.325 151.491 155.791 153.632 158.455C153.759 158.613 155.667 160.936 156.528 166.148C158.063 175.437 158.35 181.753 159.897 202.094V202.094Z" fill="#142664"/>
<path d="M160.273 206.11L159.897 202.722H145.679V213.418C145.679 214.059 146.204 214.583 146.845 214.583H168.671C170.59 214.583 171.743 212.43 170.653 210.853C170.484 210.608 170.301 210.371 170.106 210.146C166.966 206.507 160.273 206.11 160.273 206.11V206.11ZM56.6011 228.244L72.8258 234.704C72.8258 234.704 72.9318 236.716 73.0379 237.987C73.0379 238.516 73.356 238.94 73.8862 239.258C76.2192 240.317 77.5978 241.905 78.5522 243.388C78.128 243.388 78.128 243.388 78.5522 243.388C78.9763 244.129 79.2945 244.764 79.5065 245.4C79.6126 245.823 79.5065 246.247 79.2945 246.565C79.0824 246.882 78.6582 247.094 78.234 247.094C74.9467 247.2 68.3719 247.2 66.4632 247.2C66.145 247.2 65.8269 247.094 65.5088 246.882C63.706 245.4 56.1769 239.152 53.6318 237.034C53.1016 236.61 52.9956 235.869 53.3137 235.339L56.6011 228.244Z" fill="#3376BD"/>
<path d="M137.937 134.523C117.364 124.25 110.259 106.671 110.259 106.671C107.926 100.635 110.896 93.7513 116.94 91.4215C122.985 89.0917 129.877 92.0569 132.21 98.0931C132.21 98.0931 135.816 109.001 147.905 116.52C149.814 117.685 151.937 118.844 154.267 119.803C157.028 120.938 159.401 121.458 165.074 120.999C165.893 120.931 166.706 121.18 167.345 121.695C167.985 122.21 168.4 122.951 168.506 123.764L170.146 136.708C170.369 138.47 169.111 140.154 167.337 140.269C153.214 141.181 142.709 136.852 137.937 134.523Z" fill="#08D4F8"/>
<path d="M43.4518 148.819C43.982 148.819 44.5122 149.031 44.9364 149.349C44.9364 149.349 50.1325 153.479 51.193 160.362C51.405 161.633 50.4507 162.798 49.1781 163.01C47.9056 163.221 46.7391 162.268 46.527 160.998C46.421 160.15 46.2089 159.409 45.9968 158.774C45.7847 158.032 45.0424 157.715 44.3001 157.821C43.5578 157.926 43.1336 158.668 43.1336 159.409C43.4518 162.374 44.088 165.869 45.4666 169.787C45.5726 170.211 45.5726 170.74 45.2545 171.164C44.9364 171.588 44.5122 171.799 44.088 171.799C41.4369 171.482 36.4529 170.423 30.7265 165.869C30.5144 165.657 30.4084 165.445 30.3023 165.234C29.7721 163.751 28.2875 157.609 31.2567 148.819H43.4518Z" fill="#3376BD"/>
<path d="M123.833 97.246H69.5386C69.5386 97.246 71.4474 138.017 71.8715 147.231C71.8715 148.29 72.7199 149.031 73.7803 149.031H119.591C120.652 149.031 121.5 148.184 121.5 147.231C122.03 138.017 123.833 97.246 123.833 97.246V97.246Z" fill="#08D4F8"/>
<path d="M72.9318 86.3382C79.1884 84.5379 85.7631 88.2444 87.4598 94.4925C89.2626 100.741 85.551 107.306 79.2945 109.001C79.2945 109.001 66.2511 111.86 56.8132 122.238C51.7231 127.851 47.3753 135.582 46.9511 146.278C46.9511 151.149 43.0275 150.513 38.1494 150.513C33.2714 150.513 29.3478 151.149 29.3478 146.278C28.6055 130.287 34.0137 118.214 40.9066 109.107C53.7379 92.2686 72.9318 86.3382 72.9318 86.3382V86.3382Z" fill="#08D4F8"/>
<path d="M61.5852 91.5274C70.5989 86.0206 82.794 82.5259 96.2615 82.5259C110.365 82.5259 128.181 86.2324 132.316 98.0931C124.151 108.471 111.32 109.319 97.1099 109.319C82.5819 109.424 69.6445 102.329 61.5852 91.5274V91.5274Z" fill="#08D4F8"/>
<path d="M111.426 84.7498C111.426 84.7498 109.199 84.1144 105.593 83.6908C103.154 83.3731 100.185 83.0554 96.7918 83.0554C94.0347 83.0554 91.0654 83.3731 88.0962 83.6908C86.0814 83.9026 84.1726 84.3262 82.2638 84.6439C80.2489 84.6439 78.5522 86.2323 78.5522 88.2444C78.5522 90.2565 80.1429 91.9509 82.1577 91.9509C84.0665 92.3745 85.9753 92.7981 87.9901 93.1158C90.9594 93.5394 94.0347 93.8571 96.7918 93.8571C100.079 93.8571 103.154 93.5394 105.593 93.2217C109.305 92.6922 111.426 92.0568 111.426 92.0568C113.441 92.0568 115.031 90.3624 115.031 88.3503C115.137 86.3383 113.441 84.7498 111.426 84.7498Z" fill="#142664"/>
<path d="M82.794 83.0554C81.9456 82.7377 80.0368 80.1961 79.6126 77.6545C77.2797 62.299 83.7483 44.2961 83.7483 44.2961C83.7483 44.2961 97.6401 36.6713 118.743 46.2023C118.743 46.2023 121.076 65.2642 116.94 79.7725C116.516 81.361 115.243 82.6318 113.653 83.2672C112.804 83.5849 111.85 83.9026 110.683 84.1144L110.79 88.2445C110.79 88.2445 99.6549 91.845 82.6879 88.2445L82.794 83.0554Z" fill="#3376BD"/>
<path d="M109.199 83.3731C109.941 83.2672 110.683 83.6908 110.895 84.4321C111.108 85.1734 110.683 86.0206 109.729 86.2324C109.729 86.2324 109.305 86.5501 108.35 86.9737C107.714 87.1855 106.972 87.3973 106.124 87.5032C105.381 87.5032 104.639 87.5032 103.791 87.2914C103.26 87.1855 102.836 86.9737 102.306 86.7619C101.458 86.656 100.927 86.0206 100.927 85.1734C101.033 84.3262 101.67 83.7967 102.518 83.7967C103.048 83.6908 103.366 83.479 103.897 83.479C104.639 83.3731 105.275 83.1613 105.805 83.1613C106.548 83.0554 107.184 83.1613 107.714 83.1613C108.669 83.2672 109.199 83.3731 109.199 83.3731V83.3731ZM97.534 57.9571L101.67 57.6394C102.412 57.9571 103.26 57.6394 103.578 56.8981C103.897 56.1568 103.578 55.3096 102.836 54.9919C102.412 54.5683 102.094 54.3565 101.67 54.1447C101.352 53.9329 101.033 53.9329 100.715 53.827C100.079 53.6152 99.4427 53.6152 98.9125 53.6152C98.5944 53.6152 98.3823 53.7211 98.0642 53.7211C97.3219 53.9329 96.7916 54.2506 96.3675 54.5683C96.0493 54.886 95.7312 55.0978 95.6252 55.3096C95.4131 55.6273 95.307 55.8391 95.307 55.8391C94.6708 56.5804 94.6708 57.4276 95.307 58.063C96.0493 58.5925 97.0037 58.5925 97.534 57.9571ZM113.441 58.1689L117.576 59.0161C118.213 59.5456 119.061 59.4397 119.591 58.9102C120.121 58.2748 120.015 57.4276 119.485 56.8981C119.167 56.3686 118.955 56.0509 118.637 55.7332C118.425 55.4155 118.106 55.3096 117.788 55.0978C117.258 54.7801 116.728 54.5683 116.092 54.4624C115.773 54.3565 115.561 54.3565 115.243 54.3565C114.501 54.3565 113.865 54.4624 113.334 54.6742C112.91 54.886 112.592 54.9919 112.38 55.2037L111.956 55.6273C111.108 56.1568 110.895 57.004 111.32 57.7453C111.85 58.3807 112.804 58.5925 113.441 58.1689V58.1689ZM113.228 62.5108C113.228 62.5108 112.91 63.358 112.91 64.2052C112.91 65.0524 113.122 65.8996 113.122 65.8996C113.016 67.0645 113.971 68.0176 115.137 68.1235C116.304 68.2294 117.258 67.2763 117.364 66.1114C117.364 66.1114 117.682 65.2642 117.682 64.417C117.682 63.5698 117.47 62.7226 117.47 62.7226C117.576 61.5577 116.622 60.6046 115.455 60.4987C114.289 60.4987 113.334 61.3459 113.228 62.5108ZM97.3219 62.299C97.3219 62.299 97.0037 63.1462 97.0037 63.9934C97.0037 64.8406 97.2158 65.6878 97.2158 65.6878C97.1098 66.8527 98.0642 67.8058 99.2307 67.9117C100.397 68.0176 101.352 67.0645 101.458 65.8996C101.458 65.8996 101.776 65.0524 101.776 64.2052C101.776 63.358 101.564 62.5108 101.564 62.5108C101.67 61.3459 100.715 60.3928 99.5488 60.2869C98.3823 60.2869 97.4279 61.1341 97.3219 62.299V62.299ZM101.564 75.5365C101.564 75.5365 102.518 76.5955 104.321 77.4427C105.275 77.8663 106.336 78.184 107.608 78.2899C108.244 78.2899 108.987 78.184 109.729 77.9722C111.108 77.5486 112.486 76.9132 113.759 75.5365C114.501 75.007 114.713 73.8421 114.077 73.1008C113.547 72.3595 112.38 72.1477 111.638 72.7831C110.471 73.4185 109.411 73.5244 108.456 73.5244H106.654C104.957 73.3126 103.791 72.889 103.791 72.889C103.048 72.2536 101.882 72.4654 101.352 73.2067C100.609 73.8421 100.821 74.9011 101.564 75.5365V75.5365Z" fill="#142664"/>
<path d="M82.1577 41.119C83.3242 38.3657 85.445 35.4005 89.3687 33.3884C111.214 22.0571 130.302 43.9783 119.379 57.004L118.743 48.3202C105.063 53.9329 104.957 45.4609 97.6401 46.414C90.323 47.3671 89.4747 55.5214 90.9593 62.5108C91.8077 66.3232 86.0813 66.4291 86.8236 62.8285C87.3538 60.181 86.8236 57.3217 84.2785 57.7453C80.8851 58.2748 83.2181 63.358 83.006 67.594C82.9 71.1946 79.2945 73.2067 79.2945 73.2067C69.3264 63.358 70.0687 45.1432 82.1577 41.119V41.119ZM125.636 121.815C125.636 121.815 125.954 120.544 126.166 118.849C126.272 117.896 126.484 116.837 126.484 115.884V114.084C126.378 111.754 126.166 109.848 126.166 109.848C126.166 108.895 125.424 108.048 124.469 108.048C123.515 108.048 122.666 108.789 122.666 109.742C122.666 109.742 122.242 111.648 121.924 113.978C121.818 114.613 121.818 115.143 121.712 115.778C121.712 116.837 121.712 117.896 121.818 118.849C121.924 120.65 122.136 121.921 122.136 121.921C122.136 122.874 122.879 123.721 123.833 123.721C124.787 123.721 125.636 122.768 125.636 121.815V121.815ZM72.5077 115.037C72.5077 115.037 73.25 114.931 74.5225 114.719C75.0527 114.613 75.795 114.613 76.5373 114.402C76.9615 114.296 77.2797 114.19 77.7038 114.084C78.5522 113.766 79.4005 113.449 80.461 113.131C81.4154 113.025 82.1577 112.178 81.9456 111.225C81.8395 110.272 80.9912 109.53 80.0368 109.742C78.8703 109.636 77.8099 109.636 76.7494 109.742C76.2192 109.742 75.795 109.848 75.3709 109.954C74.5225 110.166 73.7802 110.483 73.1439 110.801C71.6593 111.436 71.0231 111.966 71.0231 111.966C70.1747 112.39 69.7505 113.343 70.1747 114.296C70.5989 115.037 71.6593 115.461 72.5077 115.037V115.037ZM73.6742 237.775C73.6742 237.775 73.25 237.457 72.4016 237.034C71.9775 236.822 71.4472 236.716 70.917 236.716C70.5989 236.716 70.2808 236.716 69.9626 236.822C69.1143 237.034 68.372 237.351 67.7357 237.881C66.8874 238.304 66.4632 239.363 66.8874 240.211C67.3115 241.058 68.372 241.481 69.2203 241.058C69.4324 241.058 69.6445 241.164 69.8566 241.164C70.1747 241.164 70.4928 241.375 70.811 241.375C71.1291 241.375 71.4472 241.27 71.7654 241.27C72.5077 241.27 72.9319 241.164 72.9319 241.164C73.6742 241.375 74.7346 240.952 74.9467 239.999C75.2648 239.046 74.7346 238.093 73.8862 237.775H73.6742ZM159.662 205.308C159.662 205.308 159.133 205.285 158.192 205.412C157.722 205.475 157.225 205.687 156.787 205.986C156.524 206.165 156.261 206.344 156.059 206.611C155.477 207.263 155.044 207.944 154.817 208.739C154.356 209.566 154.603 210.68 155.432 211.141C156.26 211.602 157.376 211.355 157.837 210.527C158.012 210.407 158.247 210.375 158.422 210.256C158.685 210.077 159.067 210.073 159.33 209.894C159.593 209.715 159.796 209.448 160.059 209.269C160.671 208.85 160.962 208.524 160.962 208.524C161.695 208.281 162.331 207.334 161.968 206.427C161.843 205.986 161.551 205.609 161.153 205.378C160.756 205.147 160.284 205.079 159.837 205.188L159.662 205.308Z" fill="#142664"/>
</g>
<g clip-path="url(#clip8_21_2407)">
<path d="M209.969 329.318L229.051 318.247C230.361 317.508 230.771 315.868 230.034 314.556C229.297 313.244 227.659 312.834 226.348 313.572L207.266 324.643C205.956 325.381 205.546 327.022 206.283 328.334C206.938 329.646 208.658 330.056 209.969 329.318V329.318ZM236.75 313.818L263.612 298.318C264.923 297.58 265.332 295.94 264.595 294.628C263.858 293.316 262.22 292.906 260.91 293.644L234.047 309.144C232.736 309.882 232.327 311.522 233.064 312.834C233.801 314.146 235.521 314.556 236.75 313.818ZM209.969 355.315L215.374 352.198C216.684 351.46 217.094 349.82 216.357 348.508C215.62 347.196 213.982 346.786 212.671 347.524L207.266 350.64C205.956 351.378 205.546 353.018 206.283 354.331C206.938 355.643 208.658 356.053 209.969 355.315V355.315ZM222.499 348.016L250.181 332.024C251.491 331.286 251.901 329.646 251.164 328.334C250.427 327.022 248.789 326.611 247.478 327.35L219.796 343.341C218.486 344.079 218.077 345.72 218.814 347.032C219.551 348.344 221.189 348.754 222.499 348.016ZM209.969 342.357L263.612 311.358C264.923 310.62 265.332 308.98 264.595 307.667C263.858 306.355 262.22 305.945 260.91 306.683L207.266 337.683C205.956 338.421 205.546 340.061 206.283 341.373C206.938 342.603 208.658 343.095 209.969 342.357V342.357Z" fill="#142664"/>
</g>
<g clip-path="url(#clip9_21_2407)">
<path d="M345.618 234.066V207.71H334.278V260.753L330.876 262.995V207.71H326.907V265.611L291.96 288.646C288.689 291.033 286.804 293.977 286.84 297.694V362.106H297.046V301.897C297.046 299.588 298.206 297.434 300.132 296.164L337.082 265.725H351.225C353.722 265.725 355.745 264.022 355.745 261.522V244.851C355.745 243.65 355.269 242.499 354.421 241.651C353.574 240.802 352.424 240.325 351.225 240.325C347.772 240.325 345.618 237.523 345.618 234.066V234.066Z" fill="#08D4F8"/>
<path d="M344.389 58.723L313.062 59.2381C312.266 59.2381 311.478 59.0743 310.748 58.7571C310.018 58.4398 309.361 57.9757 308.817 57.3937L281.736 28.3964C279.135 25.6117 274.169 25.2191 269.633 25.2191L274.473 70.7435L274.471 70.7937V165.328H274.24C262.132 165.328 252.316 175.155 252.316 187.277V208.469H241.071C239.843 208.469 238.665 208.957 237.797 209.826C236.929 210.696 236.441 211.875 236.441 213.104V362.107H274.471V267.898C274.471 266.445 274.829 265.015 275.513 263.733C276.196 262.452 277.185 261.359 278.391 260.551L350.671 212.126C353.394 210.302 355.626 207.834 357.169 204.94C358.713 202.047 359.52 198.817 359.52 195.537V70.7927C359.52 64.411 351.936 62.1276 344.389 58.723V58.723Z" fill="#08D4F8"/>
<path d="M324.044 32.6147V57.649C324.043 58.1633 323.839 58.6563 323.476 59.02C323.113 59.3836 322.62 59.5881 322.107 59.5885H322.013C321.758 59.5886 321.506 59.5385 321.271 59.4411C321.036 59.3437 320.822 59.2008 320.643 59.0207C320.463 58.8406 320.32 58.6267 320.223 58.3913C320.125 58.156 320.075 57.9037 320.075 57.649V32.6147H324.044Z" fill="#142664"/>
<path d="M321.737 46.0944C332.598 46.0944 341.402 37.2802 341.402 26.4072C341.402 15.5342 332.598 6.71997 321.737 6.71997C310.876 6.71997 302.072 15.5342 302.072 26.4072C302.072 37.2802 310.876 46.0944 321.737 46.0944Z" fill="#142664"/>
<path d="M265.517 191.878H339.752V360.274H265.517V191.878Z" fill="#3376BD"/>
<path d="M339.752 221.105V230.721L265.517 280.008V270.392L339.752 221.105ZM339.752 237.283V240.935L265.517 290.222V286.57L339.752 237.283Z" fill="#1B1B1B"/>
<path d="M352.602 247.867V261.197C352.602 263.696 350.578 265.723 348.082 265.723H339.749L319.15 279.298L316.503 281.044L296.343 294.332C295.395 294.958 294.616 295.809 294.078 296.81C293.539 297.811 293.257 298.93 293.256 300.066V307.058H285.223C284.646 307.058 284.094 307.288 283.687 307.696C283.279 308.104 283.05 308.657 283.05 309.234V295.861C283.015 292.147 284.9 289.203 288.171 286.814L323.118 263.78V205.879H327.09V261.165L330.49 258.921V205.879H341.829V237.084C341.829 238.809 342.529 240.374 343.659 241.509C344.24 242.09 344.93 242.552 345.689 242.866C346.448 243.18 347.261 243.342 348.083 243.341C350.578 243.342 352.602 245.368 352.602 247.867V247.867Z" fill="#142664"/>
<path d="M293.256 307.058V360.275H283.05V309.233C283.05 308.656 283.279 308.103 283.686 307.695C284.094 307.287 284.646 307.057 285.222 307.057H293.256V307.058ZM256.214 176.615H252.245V123.415C252.245 122.888 252.454 122.383 252.826 122.01C253.198 121.638 253.703 121.428 254.229 121.428C254.755 121.428 255.26 121.638 255.632 122.01C256.004 122.383 256.214 122.888 256.214 123.415V176.615ZM254.229 116.554C253.703 116.554 253.198 116.344 252.826 115.972C252.454 115.599 252.245 115.094 252.245 114.567V97.6645C252.245 97.1376 252.454 96.6323 252.826 96.2597C253.198 95.8872 253.703 95.6779 254.229 95.6779C254.755 95.6779 255.26 95.8872 255.632 96.2597C256.004 96.6323 256.214 97.1376 256.214 97.6645V114.567C256.214 115.094 256.004 115.599 255.632 115.972C255.26 116.344 254.755 116.554 254.229 116.554V116.554Z" fill="#142664"/>
<path d="M339.024 57.4069H304.108C303.312 57.4069 302.524 57.2431 301.794 56.9258C301.064 56.6086 300.407 56.1445 299.863 55.5624L272.782 26.5652C270.181 23.7805 265.518 25.623 265.518 29.435V68.9123L265.517 68.9625V163.497H265.285C253.177 163.497 243.362 173.324 243.362 185.446V206.637H232.116C231.508 206.637 230.906 206.757 230.344 206.99C229.783 207.223 229.272 207.565 228.842 207.995C228.412 208.426 228.071 208.937 227.839 209.499C227.606 210.061 227.486 210.664 227.486 211.273V360.276H265.517V266.067C265.517 264.614 265.874 263.184 266.558 261.902C267.242 260.621 268.23 259.528 269.436 258.72L341.716 210.295C344.439 208.471 346.671 206.002 348.215 203.109C349.758 200.216 350.566 196.986 350.565 193.706V68.9615C350.565 62.5803 345.398 57.4069 339.024 57.4069V57.4069Z" fill="#142664"/>
<path d="M352.602 363.261V369.494C352.602 371.142 351.265 372.48 349.619 372.48H222.344C221.952 372.48 221.564 372.403 221.202 372.253C220.84 372.103 220.511 371.883 220.234 371.606C219.957 371.328 219.737 370.999 219.587 370.637C219.437 370.274 219.36 369.886 219.36 369.494V363.261C219.36 362.869 219.437 362.481 219.587 362.118C219.737 361.756 219.957 361.426 220.234 361.149C220.511 360.872 220.84 360.652 221.202 360.502C221.564 360.352 221.952 360.274 222.344 360.275H349.619C351.265 360.275 352.602 361.613 352.602 363.261ZM347.878 309.233V314.152C347.878 314.438 347.822 314.721 347.712 314.985C347.603 315.249 347.442 315.489 347.24 315.691C347.038 315.893 346.798 316.054 346.534 316.163C346.271 316.272 345.988 316.328 345.702 316.328H293.255V307.058H345.702C345.988 307.057 346.271 307.113 346.535 307.223C346.798 307.332 347.038 307.492 347.24 307.694C347.443 307.896 347.603 308.136 347.712 308.4C347.822 308.664 347.878 308.947 347.878 309.233V309.233ZM293.255 307.058V316.328H285.222C284.646 316.328 284.094 316.098 283.686 315.69C283.279 315.282 283.05 314.729 283.05 314.152V309.233C283.05 308.656 283.279 308.103 283.686 307.695C284.094 307.287 284.646 307.058 285.222 307.057H293.255V307.058Z" fill="#142664"/>
<path d="M264.225 222.048C263.834 222.048 263.459 221.893 263.183 221.616C262.906 221.339 262.751 220.964 262.751 220.572V163.494C262.751 163.102 262.906 162.727 263.183 162.45C263.459 162.173 263.834 162.018 264.225 162.018C264.616 162.018 264.991 162.173 265.268 162.45C265.544 162.727 265.7 163.102 265.7 163.494V217.715L281.955 206.17V193.31C281.955 192.918 282.11 192.543 282.386 192.266C282.663 191.989 283.038 191.834 283.429 191.834C283.82 191.834 284.195 191.989 284.471 192.266C284.748 192.543 284.903 192.918 284.903 193.31V206.932C284.903 207.411 284.672 207.859 284.282 208.136L265.078 221.776C264.829 221.953 264.531 222.048 264.225 222.048ZM283.429 175.612C283.038 175.612 282.663 175.457 282.386 175.18C282.11 174.903 281.955 174.528 281.955 174.137V120.275C281.955 119.74 282.244 119.247 282.709 118.987L291.53 114.051V68.2785L275.132 51.5649C274.996 51.4266 274.889 51.2629 274.817 51.0832C274.744 50.9035 274.708 50.7112 274.71 50.5174C274.711 50.3235 274.751 50.132 274.827 49.9536C274.903 49.7752 275.013 49.6134 275.151 49.4776C275.289 49.3418 275.452 49.2346 275.632 49.162C275.812 49.0895 276.004 49.0531 276.197 49.0548C276.391 49.0566 276.582 49.0965 276.76 49.1723C276.939 49.2481 277.1 49.3583 277.236 49.4966L294.057 66.6407C294.328 66.9172 294.479 67.2881 294.479 67.6754V112.401L307.279 105.237C307.504 105.112 307.757 105.047 308.014 105.05C308.271 105.053 308.523 105.123 308.744 105.253C308.966 105.383 309.15 105.569 309.278 105.792C309.405 106.016 309.472 106.269 309.472 106.526V120.459C309.472 120.721 309.402 120.979 309.27 121.205C309.137 121.432 308.946 121.619 308.718 121.747L293.724 130.141C293.499 130.267 293.246 130.331 292.989 130.329C292.732 130.326 292.48 130.256 292.259 130.126C292.037 129.996 291.853 129.81 291.725 129.586C291.598 129.363 291.53 129.11 291.53 128.853V117.432L284.903 121.141V174.137C284.903 174.528 284.748 174.903 284.471 175.18C284.195 175.457 283.82 175.612 283.429 175.612V175.612ZM294.479 115.782V126.336L306.524 119.593V109.042L294.479 115.782Z" fill="#3376BD"/>
<path d="M283.429 185.365C284.243 185.365 284.903 184.704 284.903 183.889C284.903 183.074 284.243 182.413 283.429 182.413C282.615 182.413 281.955 183.074 281.955 183.889C281.955 184.704 282.615 185.365 283.429 185.365Z" fill="#3376BD"/>
<path d="M282.938 108.199C283.752 108.199 284.412 107.538 284.412 106.723C284.412 105.908 283.752 105.247 282.938 105.247C282.123 105.247 281.463 105.908 281.463 106.723C281.463 107.538 282.123 108.199 282.938 108.199Z" fill="#3376BD"/>
<path d="M282.938 96.3494C283.752 96.3494 284.412 95.6886 284.412 94.8735C284.412 94.0583 283.752 93.3975 282.938 93.3975C282.123 93.3975 281.463 94.0583 281.463 94.8735C281.463 95.6886 282.123 96.3494 282.938 96.3494Z" fill="#3376BD"/>
<path d="M253.977 359.895C253.586 359.895 253.211 359.74 252.935 359.463C252.658 359.186 252.503 358.811 252.503 358.419V254.514C252.501 252.818 252.918 251.149 253.716 249.653C254.514 248.157 255.668 246.882 257.076 245.94L329.356 197.515C331.88 195.827 333.949 193.542 335.379 190.862C336.808 188.182 337.555 185.19 337.552 182.152V86.5002C337.552 86.1087 337.707 85.7333 337.984 85.4565C338.26 85.1797 338.635 85.0242 339.026 85.0242C339.417 85.0242 339.792 85.1797 340.069 85.4565C340.345 85.7333 340.501 86.1087 340.501 86.5002V182.153C340.504 185.676 339.638 189.146 337.98 192.254C336.322 195.362 333.923 198.012 330.996 199.968L258.717 248.394C257.711 249.066 256.887 249.976 256.318 251.044C255.748 252.112 255.451 253.304 255.452 254.514V358.419C255.452 358.613 255.414 358.805 255.34 358.984C255.265 359.163 255.157 359.326 255.02 359.463C254.883 359.6 254.72 359.709 254.542 359.783C254.363 359.857 254.171 359.895 253.977 359.895Z" fill="#08D4F8"/>
<path d="M329.923 133.892C329.532 133.892 329.157 133.736 328.88 133.459C328.604 133.183 328.448 132.807 328.448 132.416V95.7093C328.448 95.3179 328.604 94.9425 328.88 94.6657C329.157 94.3888 329.532 94.2333 329.923 94.2333C330.314 94.2333 330.689 94.3888 330.965 94.6657C331.242 94.9425 331.397 95.3179 331.397 95.7093V129.632L338.199 125.013C338.359 124.904 338.539 124.828 338.729 124.789C338.919 124.75 339.114 124.749 339.304 124.785C339.494 124.822 339.675 124.896 339.837 125.002C339.999 125.109 340.138 125.246 340.246 125.407C340.355 125.567 340.431 125.747 340.47 125.937C340.509 126.127 340.511 126.323 340.474 126.513C340.438 126.703 340.364 126.885 340.258 127.047C340.151 127.208 340.014 127.348 339.854 127.456L330.75 133.637C330.506 133.803 330.218 133.892 329.923 133.892V133.892ZM304.449 180.911C304.134 180.912 303.827 180.811 303.573 180.624C303.319 180.437 303.132 180.174 303.038 179.873C302.945 179.571 302.95 179.248 303.054 178.95C303.158 178.652 303.354 178.395 303.614 178.217L338.193 154.503C338.352 154.393 338.532 154.316 338.721 154.276C338.911 154.236 339.106 154.234 339.297 154.27C339.487 154.305 339.668 154.378 339.83 154.484C339.993 154.59 340.132 154.726 340.242 154.886C340.351 155.046 340.428 155.226 340.468 155.416C340.508 155.605 340.51 155.801 340.475 155.991C340.439 156.182 340.367 156.364 340.261 156.526C340.155 156.688 340.019 156.828 339.859 156.938L305.281 180.652C305.036 180.821 304.746 180.911 304.449 180.911V180.911Z" fill="#08D4F8"/>
<path d="M304.447 217.455C304.056 217.455 303.681 217.3 303.405 217.023C303.128 216.746 302.973 216.371 302.973 215.979V158.865C302.973 158.474 303.128 158.099 303.405 157.822C303.681 157.545 304.056 157.389 304.447 157.389C304.838 157.389 305.213 157.545 305.49 157.822C305.766 158.099 305.922 158.474 305.922 158.865V215.979C305.922 216.371 305.766 216.746 305.49 217.023C305.213 217.3 304.838 217.455 304.447 217.455V217.455ZM318.142 171.242C317.751 171.242 317.376 171.086 317.099 170.809C316.823 170.533 316.667 170.157 316.667 169.766V149.556C316.667 149.165 316.823 148.789 317.099 148.513C317.376 148.236 317.751 148.08 318.142 148.08C318.533 148.08 318.908 148.236 319.184 148.513C319.461 148.789 319.616 149.165 319.616 149.556V169.766C319.616 170.157 319.461 170.533 319.184 170.809C318.908 171.086 318.533 171.242 318.142 171.242Z" fill="#08D4F8"/>
<path d="M304.449 160.341C304.134 160.342 303.827 160.24 303.573 160.053C303.319 159.866 303.132 159.602 303.039 159.3C302.947 158.998 302.953 158.675 303.057 158.377C303.162 158.079 303.359 157.822 303.62 157.645L317.313 148.336C317.473 148.227 317.653 148.151 317.843 148.111C318.032 148.072 318.228 148.071 318.418 148.107C318.608 148.143 318.789 148.217 318.951 148.323C319.113 148.43 319.252 148.567 319.361 148.727C319.47 148.888 319.546 149.068 319.585 149.258C319.624 149.447 319.626 149.643 319.59 149.834C319.553 150.024 319.48 150.205 319.373 150.367C319.267 150.529 319.13 150.669 318.97 150.777L305.276 160.087C305.032 160.253 304.744 160.341 304.449 160.341V160.341Z" fill="#08D4F8"/>
<path d="M332.537 61.2022H310.018C309.162 61.2022 308.341 60.8616 307.735 60.2554C307.129 59.6492 306.789 58.8271 306.789 57.9698V57.2839C306.789 56.4266 307.129 55.6045 307.735 54.9983C308.341 54.3921 309.162 54.0515 310.018 54.0515H332.537C333.393 54.0515 334.215 54.3921 334.82 54.9983C335.426 55.6045 335.766 56.4266 335.766 57.2839V57.9698C335.766 58.8271 335.426 59.6492 334.82 60.2554C334.215 60.8616 333.393 61.2022 332.537 61.2022V61.2022Z" fill="#3376BD"/>
<path d="M319.15 279.298V307.058H316.502V281.043L319.15 279.298ZM316.502 316.328H319.15V360.275H316.502V316.328Z" fill="#1B1B1B"/>
<path d="M318.493 41.1538C317.972 41.1538 317.472 40.9465 317.103 40.5774C316.735 40.2084 316.528 39.7078 316.528 39.1858V35.5121C316.528 34.9902 316.735 34.4896 317.103 34.1205C317.472 33.7515 317.972 33.5441 318.493 33.5441C319.015 33.5441 319.515 33.7515 319.883 34.1205C320.252 34.4896 320.459 34.9902 320.459 35.5121V39.1858C320.459 39.7078 320.252 40.2084 319.883 40.5774C319.515 40.9465 319.015 41.1538 318.493 41.1538ZM318.493 19.2964C317.972 19.2964 317.472 19.0891 317.103 18.72C316.735 18.3509 316.528 17.8504 316.528 17.3284V12.961C316.528 12.439 316.735 11.9385 317.103 11.5694C317.472 11.2003 317.972 10.993 318.493 10.993C319.015 10.993 319.515 11.2003 319.883 11.5694C320.252 11.9385 320.459 12.439 320.459 12.961V17.3284C320.459 17.8504 320.252 18.3509 319.883 18.72C319.515 19.0891 319.015 19.2964 318.493 19.2964ZM324.025 41.1538C323.503 41.1538 323.003 40.9465 322.635 40.5774C322.266 40.2084 322.059 39.7078 322.059 39.1858V35.5121C322.059 34.9902 322.266 34.4896 322.635 34.1205C323.003 33.7515 323.503 33.5441 324.025 33.5441C324.546 33.5441 325.046 33.7515 325.415 34.1205C325.783 34.4896 325.99 34.9902 325.99 35.5121V39.1858C325.99 39.7078 325.783 40.2084 325.415 40.5774C325.046 40.9465 324.546 41.1538 324.025 41.1538ZM324.025 19.2964C323.503 19.2964 323.003 19.0891 322.635 18.72C322.266 18.3509 322.059 17.8504 322.059 17.3284V12.961C322.059 12.439 322.266 11.9385 322.635 11.5694C323.003 11.2003 323.503 10.993 324.025 10.993C324.546 10.993 325.046 11.2003 325.415 11.5694C325.783 11.9385 325.99 12.439 325.99 12.961V17.3284C325.99 17.8504 325.783 18.3509 325.415 18.72C325.046 19.0891 324.546 19.2964 324.025 19.2964Z" fill="#3376BD"/>
<path d="M331.903 30.0834C331.903 30.8125 331.811 31.4684 331.626 32.0504C331.442 32.6329 331.198 33.1466 330.896 33.5918C330.593 34.0371 330.238 34.4159 329.832 34.7283C329.441 35.0311 329.017 35.2884 328.569 35.4954C328.134 35.6941 327.691 35.8412 327.242 35.9357C326.793 36.0302 326.369 36.0779 325.972 36.0779H312.71C312.583 36.0779 312.457 36.0529 312.339 36.0042C312.221 35.9555 312.115 35.8841 312.025 35.794C311.935 35.7039 311.863 35.597 311.815 35.4793C311.766 35.3617 311.741 35.2355 311.741 35.1082V33.3542C311.741 33.2268 311.766 33.1007 311.815 32.983C311.863 32.8653 311.935 32.7584 312.025 32.6683C312.115 32.5783 312.221 32.5069 312.339 32.4582C312.457 32.4094 312.583 32.3844 312.71 32.3845H325.972C326.682 32.3845 327.232 32.1764 327.626 31.7596C328.018 31.3429 328.214 30.7845 328.214 30.0834C328.214 29.7424 328.162 29.43 328.058 29.1457C327.954 28.8618 327.805 28.6153 327.611 28.4072C327.417 28.1991 327.18 28.0377 326.901 27.924C326.622 27.8104 326.312 27.7538 325.972 27.7538H317.487C316.891 27.7538 316.248 27.647 315.557 27.4345C314.857 27.216 314.205 26.8666 313.635 26.4047C313.043 25.9314 312.551 25.311 312.159 24.544C311.766 23.777 311.57 22.8392 311.57 21.7313C311.57 20.6233 311.766 19.6885 312.159 18.9259C312.551 18.1638 313.043 17.5434 313.635 17.0652C314.203 16.599 314.856 16.2469 315.557 16.028C316.248 15.8155 316.891 15.7087 317.487 15.7087H329.075C329.202 15.7087 329.328 15.7337 329.446 15.7824C329.564 15.8311 329.67 15.9026 329.76 15.9926C329.85 16.0827 329.922 16.1896 329.97 16.3073C330.019 16.425 330.044 16.5511 330.044 16.6785V18.4324C330.044 18.5598 330.019 18.6859 329.97 18.8036C329.922 18.9213 329.85 19.0282 329.76 19.1183C329.67 19.2083 329.564 19.2798 329.446 19.3285C329.328 19.3772 329.202 19.4022 329.075 19.4022H317.487C316.787 19.4022 316.241 19.6152 315.849 20.0413C315.456 20.4673 315.26 21.0307 315.26 21.7318C315.26 22.4422 315.456 23.0031 315.849 23.4149C316.241 23.8272 316.787 24.0328 317.487 24.0328H326C326.397 24.0422 326.819 24.0968 327.263 24.1962C328.207 24.4123 329.09 24.8397 329.846 25.4463C330.243 25.7637 330.595 26.1445 330.903 26.5897C331.211 27.035 331.454 27.5462 331.634 28.1238C331.813 28.7009 331.903 29.3543 331.903 30.0834V30.0834Z" fill="#3376BD"/>
</g>
<g clip-path="url(#clip10_21_2407)">
<path d="M220.456 118.122C221.93 118.122 223.061 119.311 223.061 120.748C223.061 122.234 221.881 123.374 220.456 123.374H202.765C201.339 123.374 200.16 122.185 200.16 120.748C200.16 119.311 201.339 118.122 202.765 118.122H220.456Z" fill="#3376BD"/>
<path d="M214.215 123.423H212.445V118.122H214.215V123.423ZM208.121 123.423H206.352V118.122H208.121V123.423Z" fill="#142664"/>
<path d="M220.456 124.266C221.93 124.266 223.061 125.455 223.061 126.891C223.061 128.378 221.881 129.517 220.456 129.517H202.765C201.339 129.517 200.16 128.328 200.16 126.891C200.16 125.455 201.339 124.266 202.765 124.266H220.456Z" fill="#3376BD"/>
<path d="M214.215 129.567H212.445V124.266H214.215V129.567ZM208.121 129.567H206.352V124.266H208.121V129.567Z" fill="#142664"/>
<path d="M220.456 130.409C221.93 130.409 223.061 131.598 223.061 133.035C223.061 134.521 221.881 135.661 220.456 135.661H202.765C201.339 135.661 200.16 134.471 200.16 133.035C200.16 131.598 201.339 130.409 202.765 130.409H220.456Z" fill="#3376BD"/>
<path d="M214.215 135.71H212.445V130.409H214.215V135.71ZM208.121 135.71H206.352V130.409H208.121V135.71Z" fill="#142664"/>
<path d="M262.529 131.412C271.326 131.412 278.501 124.228 278.501 115.311V91.9757C278.501 87.5168 282.088 83.8506 286.56 83.8506V76.32C278.009 76.32 271.031 83.3056 271.031 91.9757V115.311C271.031 120.017 267.247 123.882 262.529 123.882H225.033V131.412H262.529Z" fill="#08D4F8"/>
<path d="M225.862 136.8C220.461 136.8 216.083 132.386 216.083 126.941C216.083 121.496 220.461 117.082 225.862 117.082C231.263 117.082 235.642 121.496 235.642 126.941C235.642 132.386 231.263 136.8 225.862 136.8Z" fill="#142664"/>
<path d="M226.795 116.19C227.827 117.23 227.827 118.915 226.795 119.955C225.763 120.996 224.092 120.996 223.06 119.955L216.868 113.713C215.836 112.672 215.836 110.988 216.868 109.948C217.9 108.907 219.571 108.907 220.603 109.948C220.554 109.948 224.388 113.812 226.795 116.19Z" fill="#3376BD"/>
<path d="M219.178 115.992L217.949 114.753L221.684 110.988L222.913 112.227L219.178 115.992ZM202.912 124.563C202.715 124.563 202.518 124.464 202.371 124.365C202.224 124.216 202.174 124.018 202.174 123.82C202.174 123.621 202.273 123.423 202.371 123.275C202.518 123.126 202.715 123.077 202.912 123.077H217.999V124.563H202.912ZM202.912 130.756C202.715 130.756 202.518 130.657 202.371 130.558C202.224 130.409 202.174 130.211 202.174 130.013C202.174 129.814 202.273 129.616 202.371 129.468C202.518 129.319 202.715 129.269 202.912 129.269H217.999V130.756H202.912ZM256.091 131.412H252.356V123.882H256.091V131.412ZM244.886 131.412H241.152V123.882H244.886V131.412ZM233.682 131.412H229.947V123.882H233.682V131.412ZM268.623 130.174C267.148 130.768 265.576 131.214 263.905 131.313L263.266 123.832C264.151 123.733 264.986 123.535 265.772 123.238L268.623 130.174ZM277.911 119.472C277.469 121.058 276.83 122.593 275.945 123.981L269.655 119.918C270.097 119.175 270.49 118.382 270.687 117.54L277.911 119.472ZM278.451 107.235V111H270.982V107.235H278.451ZM278.451 95.9392V99.7044H270.982V95.9392H278.451ZM279.975 87.2691C279.483 87.9627 279.09 88.7554 278.845 89.5481L271.719 87.3186C272.21 85.7332 272.947 84.2469 273.881 82.9093L279.975 87.2691ZM286.511 83.8506C285.626 83.8506 284.791 83.9992 284.005 84.2469L281.695 77.1127C283.218 76.6173 284.84 76.32 286.56 76.32L286.511 83.8506Z" fill="#142664"/>
</g>
<g clip-path="url(#clip11_21_2407)">
<path d="M195.04 172.48C195.36 170.72 195.52 169.28 195.52 169.28C195.52 168 196.48 167.04 197.76 167.04C199.04 167.04 200 168 200 169.28C200 169.28 200.32 170.56 200.48 172.48H200.64C202.4 172.64 203.68 172.96 203.68 172.96C204.96 172.96 205.92 173.92 205.92 175.2C205.92 176.48 204.96 177.44 203.68 177.44C203.68 177.44 202.4 177.76 200.64 177.92H200.48V178.08C200.32 179.84 200 181.12 200 181.12C200 182.4 199.04 183.36 197.76 183.36C196.48 183.36 195.52 182.4 195.52 181.12C195.52 181.12 195.2 179.84 195.04 178.08V177.92C193.28 177.6 191.84 177.44 191.84 177.44C190.56 177.44 189.6 176.48 189.6 175.2C189.6 173.92 190.56 172.96 191.84 172.96C191.84 173.12 193.12 172.8 195.04 172.48Z" fill="#3376BD"/>
</g>
<g clip-path="url(#clip12_21_2407)">
<path d="M214.24 188.32C214.758 185.473 215.016 183.144 215.016 183.144C215.016 181.073 216.569 179.52 218.64 179.52C220.711 179.52 222.263 181.073 222.263 183.144C222.263 183.144 222.781 185.214 223.04 188.32H223.299C226.146 188.579 228.216 189.096 228.216 189.096C230.287 189.096 231.84 190.649 231.84 192.72C231.84 194.791 230.287 196.344 228.216 196.344C228.216 196.344 226.146 196.861 223.299 197.12H223.04V197.379C222.781 200.226 222.263 202.296 222.263 202.296C222.263 204.367 220.711 205.92 218.64 205.92C216.569 205.92 215.016 204.367 215.016 202.296C215.016 202.296 214.499 200.226 214.24 197.379V197.12C211.393 196.602 209.063 196.344 209.063 196.344C206.993 196.344 205.44 194.791 205.44 192.72C205.44 190.649 206.993 189.096 209.063 189.096C209.063 189.355 211.134 188.838 214.24 188.32Z" fill="#08D4F8"/>
</g>
<g clip-path="url(#clip13_21_2407)">
<path d="M244.8 62.6216C244.8 62.9991 244.651 63.3389 244.39 63.6032C244.129 63.8675 243.793 64.0185 243.421 64.0185H242.377C242.004 64.0185 241.668 63.8675 241.407 63.6032C241.146 63.3389 240.997 62.9991 240.997 62.6216V58.997C240.997 58.6194 241.146 58.2796 241.407 58.0153C241.668 57.751 242.004 57.6 242.377 57.6H243.421C243.793 57.6 244.129 57.751 244.39 58.0153C244.651 58.2796 244.8 58.6194 244.8 58.997V62.6216ZM242.339 97.1686C241.594 97.1686 240.96 96.5267 240.96 95.7716V67.6809C240.96 66.9258 241.594 66.2839 242.339 66.2839H243.383C244.129 66.2839 244.763 66.9258 244.763 67.6809V95.7716C244.763 96.5267 244.129 97.1686 243.383 97.1686H242.339ZM243.421 99.4339C243.793 99.4339 244.129 99.585 244.39 99.8493C244.651 100.114 244.8 100.453 244.8 100.831V114.763C244.8 115.141 244.651 115.48 244.39 115.745C244.129 116.009 243.793 116.16 243.421 116.16H242.377C242.004 116.16 241.668 116.009 241.407 115.745C241.146 115.48 240.997 115.141 240.997 114.763V100.831C240.997 100.453 241.146 100.114 241.407 99.8493C241.668 99.585 242.004 99.4339 242.377 99.4339H243.421Z" fill="#3376BD"/>
</g>
<defs>
<clipPath id="clip0_21_2407">
<rect width="83.04" height="83.04" fill="white" transform="translate(59.04 243.84)"/>
</clipPath>
<clipPath id="clip1_21_2407">
<rect width="40.8001" height="92.64" fill="white" transform="matrix(1 0 0 -1 26.3999 334.08)"/>
</clipPath>
<clipPath id="clip2_21_2407">
<rect width="83.04" height="83.04" fill="white" transform="translate(138.72 211.68)"/>
</clipPath>
<clipPath id="clip3_21_2407">
<rect width="35.04" height="36.96" fill="white" transform="translate(59.04 334.56)"/>
</clipPath>
<clipPath id="clip4_21_2407">
<rect width="35.04" height="36.96" fill="white" transform="translate(127.68 333.6)"/>
</clipPath>
<clipPath id="clip5_21_2407">
<rect width="36.48" height="36.96" fill="white" transform="translate(88.8 334.56)"/>
</clipPath>
<clipPath id="clip6_21_2407">
<rect width="90.72" height="60.96" fill="white" transform="translate(152.64 371.04) rotate(-90)"/>
</clipPath>
<clipPath id="clip7_21_2407">
<rect width="161.28" height="216.96" fill="white" transform="translate(29.28 30.24)"/>
</clipPath>
<clipPath id="clip8_21_2407">
<rect width="59.04" height="62.4" fill="white" transform="translate(205.92 293.28)"/>
</clipPath>
<clipPath id="clip9_21_2407">
<rect width="140.16" height="365.76" fill="white" transform="translate(219.36 6.71997)"/>
</clipPath>
<clipPath id="clip10_21_2407">
<rect width="86.4" height="60.48" fill="white" transform="matrix(-1 0 0 1 286.56 76.32)"/>
</clipPath>
<clipPath id="clip11_21_2407">
<rect width="16.32" height="16.32" fill="white" transform="translate(189.6 167.04)"/>
</clipPath>
<clipPath id="clip12_21_2407">
<rect width="26.4" height="26.4" fill="white" transform="translate(205.44 179.52)"/>
</clipPath>
<clipPath id="clip13_21_2407">
<rect width="58.56" height="3.84" fill="white" transform="translate(244.8 57.6) rotate(90)"/>
</clipPath>
</defs>
</svg>
